<mxfile host="app.diagrams.net" modified="2023-06-24T14:16:00.033Z" agent="Mozilla/5.0 (Windows NT 10.0; Win64; x64) AppleWebKit/537.36 (KHTML, like Gecko) Chrome/112.0.0.0 YaBrowser/23.5.2.625 Yowser/2.5 Safari/537.36" etag="kzfszW2AU4sgoX0qSqQg" version="21.5.0" type="device">
  <diagram name="Страница 1" id="WMuuOkNUVnHprj3izUGj">
    <mxGraphModel dx="1050" dy="567" grid="1" gridSize="10" guides="1" tooltips="1" connect="1" arrows="1" fold="1" page="1" pageScale="1" pageWidth="827" pageHeight="1169" math="0" shadow="0">
      <root>
        <mxCell id="0" />
        <mxCell id="1" parent="0" />
        <mxCell id="Lxu_41CDQCfV6g_MxfKU-1" value="&lt;b&gt;Поставщик&lt;br&gt;&lt;/b&gt;" style="rounded=0;whiteSpace=wrap;html=1;" vertex="1" parent="1">
          <mxGeometry x="10" y="20" width="120" height="60" as="geometry" />
        </mxCell>
        <mxCell id="Lxu_41CDQCfV6g_MxfKU-2" value="Вход" style="rounded=0;whiteSpace=wrap;html=1;fontStyle=1" vertex="1" parent="1">
          <mxGeometry x="180" y="20" width="120" height="60" as="geometry" />
        </mxCell>
        <mxCell id="Lxu_41CDQCfV6g_MxfKU-3" value="Шаг процесса" style="rounded=0;whiteSpace=wrap;html=1;fontStyle=1" vertex="1" parent="1">
          <mxGeometry x="350" y="20" width="120" height="60" as="geometry" />
        </mxCell>
        <mxCell id="Lxu_41CDQCfV6g_MxfKU-4" value="Клиент" style="rounded=0;whiteSpace=wrap;html=1;fontStyle=1" vertex="1" parent="1">
          <mxGeometry x="680" y="20" width="120" height="60" as="geometry" />
        </mxCell>
        <mxCell id="Lxu_41CDQCfV6g_MxfKU-6" value="Выход" style="rounded=0;whiteSpace=wrap;html=1;fontStyle=1" vertex="1" parent="1">
          <mxGeometry x="520" y="20" width="120" height="60" as="geometry" />
        </mxCell>
        <mxCell id="Lxu_41CDQCfV6g_MxfKU-7" value="Клиент" style="rounded=0;whiteSpace=wrap;html=1;" vertex="1" parent="1">
          <mxGeometry x="10" y="100" width="120" height="60" as="geometry" />
        </mxCell>
        <mxCell id="Lxu_41CDQCfV6g_MxfKU-9" value="1. Предоставить список доступных видеоигр (Система)" style="rounded=0;whiteSpace=wrap;html=1;" vertex="1" parent="1">
          <mxGeometry x="350" y="100" width="120" height="60" as="geometry" />
        </mxCell>
        <mxCell id="Lxu_41CDQCfV6g_MxfKU-10" value="" style="endArrow=classic;html=1;rounded=0;exitX=1;exitY=0.5;exitDx=0;exitDy=0;entryX=0;entryY=0.5;entryDx=0;entryDy=0;" edge="1" parent="1" source="Lxu_41CDQCfV6g_MxfKU-7" target="Lxu_41CDQCfV6g_MxfKU-9">
          <mxGeometry width="50" height="50" relative="1" as="geometry">
            <mxPoint x="390" y="220" as="sourcePoint" />
            <mxPoint x="440" y="170" as="targetPoint" />
          </mxGeometry>
        </mxCell>
        <mxCell id="Lxu_41CDQCfV6g_MxfKU-11" value="Каталог видеоигр" style="shape=document;whiteSpace=wrap;html=1;boundedLbl=1;" vertex="1" parent="1">
          <mxGeometry x="520" y="100" width="120" height="60" as="geometry" />
        </mxCell>
        <mxCell id="Lxu_41CDQCfV6g_MxfKU-12" value="Система" style="rounded=0;whiteSpace=wrap;html=1;" vertex="1" parent="1">
          <mxGeometry x="680" y="100" width="120" height="60" as="geometry" />
        </mxCell>
        <mxCell id="Lxu_41CDQCfV6g_MxfKU-13" value="" style="endArrow=classic;html=1;rounded=0;exitX=1;exitY=0.5;exitDx=0;exitDy=0;entryX=0;entryY=0.5;entryDx=0;entryDy=0;" edge="1" parent="1" source="Lxu_41CDQCfV6g_MxfKU-9" target="Lxu_41CDQCfV6g_MxfKU-11">
          <mxGeometry width="50" height="50" relative="1" as="geometry">
            <mxPoint x="390" y="220" as="sourcePoint" />
            <mxPoint x="440" y="170" as="targetPoint" />
          </mxGeometry>
        </mxCell>
        <mxCell id="Lxu_41CDQCfV6g_MxfKU-14" value="" style="endArrow=classic;html=1;rounded=0;exitX=1;exitY=0.5;exitDx=0;exitDy=0;entryX=0;entryY=0.5;entryDx=0;entryDy=0;" edge="1" parent="1" source="Lxu_41CDQCfV6g_MxfKU-11" target="Lxu_41CDQCfV6g_MxfKU-12">
          <mxGeometry width="50" height="50" relative="1" as="geometry">
            <mxPoint x="480" y="140" as="sourcePoint" />
            <mxPoint x="530" y="140" as="targetPoint" />
          </mxGeometry>
        </mxCell>
        <mxCell id="Lxu_41CDQCfV6g_MxfKU-15" value="Клиент" style="rounded=0;whiteSpace=wrap;html=1;" vertex="1" parent="1">
          <mxGeometry x="10" y="170" width="120" height="60" as="geometry" />
        </mxCell>
        <mxCell id="Lxu_41CDQCfV6g_MxfKU-21" value="" style="edgeStyle=orthogonalEdgeStyle;rounded=0;orthogonalLoop=1;jettySize=auto;html=1;" edge="1" parent="1" source="Lxu_41CDQCfV6g_MxfKU-16" target="Lxu_41CDQCfV6g_MxfKU-20">
          <mxGeometry relative="1" as="geometry" />
        </mxCell>
        <mxCell id="Lxu_41CDQCfV6g_MxfKU-16" value="Информация о выбранной игре" style="shape=document;whiteSpace=wrap;html=1;boundedLbl=1;" vertex="1" parent="1">
          <mxGeometry x="520" y="170" width="120" height="60" as="geometry" />
        </mxCell>
        <mxCell id="Lxu_41CDQCfV6g_MxfKU-19" value="" style="edgeStyle=orthogonalEdgeStyle;rounded=0;orthogonalLoop=1;jettySize=auto;html=1;" edge="1" parent="1" source="Lxu_41CDQCfV6g_MxfKU-17" target="Lxu_41CDQCfV6g_MxfKU-16">
          <mxGeometry relative="1" as="geometry" />
        </mxCell>
        <mxCell id="Lxu_41CDQCfV6g_MxfKU-17" value="2. Выбор видеоигры" style="rounded=0;whiteSpace=wrap;html=1;" vertex="1" parent="1">
          <mxGeometry x="350" y="170" width="120" height="60" as="geometry" />
        </mxCell>
        <mxCell id="Lxu_41CDQCfV6g_MxfKU-18" value="" style="endArrow=classic;html=1;rounded=0;exitX=1;exitY=0.5;exitDx=0;exitDy=0;entryX=0;entryY=0.5;entryDx=0;entryDy=0;" edge="1" parent="1" source="Lxu_41CDQCfV6g_MxfKU-15" target="Lxu_41CDQCfV6g_MxfKU-17">
          <mxGeometry width="50" height="50" relative="1" as="geometry">
            <mxPoint x="390" y="220" as="sourcePoint" />
            <mxPoint x="440" y="170" as="targetPoint" />
          </mxGeometry>
        </mxCell>
        <mxCell id="Lxu_41CDQCfV6g_MxfKU-20" value="Система" style="rounded=0;whiteSpace=wrap;html=1;" vertex="1" parent="1">
          <mxGeometry x="680" y="170" width="120" height="60" as="geometry" />
        </mxCell>
        <mxCell id="Lxu_41CDQCfV6g_MxfKU-26" value="" style="edgeStyle=orthogonalEdgeStyle;rounded=0;orthogonalLoop=1;jettySize=auto;html=1;" edge="1" parent="1" source="Lxu_41CDQCfV6g_MxfKU-22" target="Lxu_41CDQCfV6g_MxfKU-23">
          <mxGeometry relative="1" as="geometry" />
        </mxCell>
        <mxCell id="Lxu_41CDQCfV6g_MxfKU-22" value="Клиент" style="rounded=0;whiteSpace=wrap;html=1;" vertex="1" parent="1">
          <mxGeometry x="10" y="240" width="120" height="60" as="geometry" />
        </mxCell>
        <mxCell id="Lxu_41CDQCfV6g_MxfKU-25" value="" style="edgeStyle=orthogonalEdgeStyle;rounded=0;orthogonalLoop=1;jettySize=auto;html=1;" edge="1" parent="1" source="Lxu_41CDQCfV6g_MxfKU-23" target="Lxu_41CDQCfV6g_MxfKU-24">
          <mxGeometry relative="1" as="geometry" />
        </mxCell>
        <mxCell id="Lxu_41CDQCfV6g_MxfKU-23" value="Личные данные клиента" style="shape=document;whiteSpace=wrap;html=1;boundedLbl=1;" vertex="1" parent="1">
          <mxGeometry x="180" y="240" width="120" height="60" as="geometry" />
        </mxCell>
        <mxCell id="Lxu_41CDQCfV6g_MxfKU-28" value="" style="edgeStyle=orthogonalEdgeStyle;rounded=0;orthogonalLoop=1;jettySize=auto;html=1;" edge="1" parent="1" source="Lxu_41CDQCfV6g_MxfKU-24" target="Lxu_41CDQCfV6g_MxfKU-27">
          <mxGeometry relative="1" as="geometry" />
        </mxCell>
        <mxCell id="Lxu_41CDQCfV6g_MxfKU-24" value="3. Оформление заказа" style="rounded=0;whiteSpace=wrap;html=1;" vertex="1" parent="1">
          <mxGeometry x="350" y="240" width="120" height="60" as="geometry" />
        </mxCell>
        <mxCell id="Lxu_41CDQCfV6g_MxfKU-30" value="" style="edgeStyle=orthogonalEdgeStyle;rounded=0;orthogonalLoop=1;jettySize=auto;html=1;" edge="1" parent="1" source="Lxu_41CDQCfV6g_MxfKU-27" target="Lxu_41CDQCfV6g_MxfKU-29">
          <mxGeometry relative="1" as="geometry" />
        </mxCell>
        <mxCell id="Lxu_41CDQCfV6g_MxfKU-27" value="Тип проаката" style="shape=document;whiteSpace=wrap;html=1;boundedLbl=1;rounded=0;" vertex="1" parent="1">
          <mxGeometry x="520" y="240" width="120" height="60" as="geometry" />
        </mxCell>
        <mxCell id="Lxu_41CDQCfV6g_MxfKU-29" value="Система" style="whiteSpace=wrap;html=1;rounded=0;" vertex="1" parent="1">
          <mxGeometry x="680" y="240" width="120" height="60" as="geometry" />
        </mxCell>
        <mxCell id="Lxu_41CDQCfV6g_MxfKU-33" value="" style="edgeStyle=orthogonalEdgeStyle;rounded=0;orthogonalLoop=1;jettySize=auto;html=1;" edge="1" parent="1" source="Lxu_41CDQCfV6g_MxfKU-31" target="Lxu_41CDQCfV6g_MxfKU-32">
          <mxGeometry relative="1" as="geometry" />
        </mxCell>
        <mxCell id="Lxu_41CDQCfV6g_MxfKU-31" value="Клиент" style="rounded=0;whiteSpace=wrap;html=1;" vertex="1" parent="1">
          <mxGeometry x="10" y="310" width="120" height="60" as="geometry" />
        </mxCell>
        <mxCell id="Lxu_41CDQCfV6g_MxfKU-35" value="" style="edgeStyle=orthogonalEdgeStyle;rounded=0;orthogonalLoop=1;jettySize=auto;html=1;" edge="1" parent="1" source="Lxu_41CDQCfV6g_MxfKU-32" target="Lxu_41CDQCfV6g_MxfKU-34">
          <mxGeometry relative="1" as="geometry" />
        </mxCell>
        <mxCell id="Lxu_41CDQCfV6g_MxfKU-32" value="Личные данные клиента" style="shape=document;whiteSpace=wrap;html=1;boundedLbl=1;rounded=0;" vertex="1" parent="1">
          <mxGeometry x="180" y="310" width="120" height="60" as="geometry" />
        </mxCell>
        <mxCell id="Lxu_41CDQCfV6g_MxfKU-37" value="" style="edgeStyle=orthogonalEdgeStyle;rounded=0;orthogonalLoop=1;jettySize=auto;html=1;" edge="1" parent="1" source="Lxu_41CDQCfV6g_MxfKU-34" target="Lxu_41CDQCfV6g_MxfKU-36">
          <mxGeometry relative="1" as="geometry" />
        </mxCell>
        <mxCell id="Lxu_41CDQCfV6g_MxfKU-34" value="4. Оплата" style="whiteSpace=wrap;html=1;rounded=0;" vertex="1" parent="1">
          <mxGeometry x="350" y="310" width="120" height="60" as="geometry" />
        </mxCell>
        <mxCell id="Lxu_41CDQCfV6g_MxfKU-39" value="" style="edgeStyle=orthogonalEdgeStyle;rounded=0;orthogonalLoop=1;jettySize=auto;html=1;" edge="1" parent="1" source="Lxu_41CDQCfV6g_MxfKU-36" target="Lxu_41CDQCfV6g_MxfKU-38">
          <mxGeometry relative="1" as="geometry" />
        </mxCell>
        <mxCell id="Lxu_41CDQCfV6g_MxfKU-36" value="Личные данные&lt;br&gt;клиента" style="shape=document;whiteSpace=wrap;html=1;boundedLbl=1;rounded=0;" vertex="1" parent="1">
          <mxGeometry x="520" y="310" width="120" height="60" as="geometry" />
        </mxCell>
        <mxCell id="Lxu_41CDQCfV6g_MxfKU-38" value="Банк" style="whiteSpace=wrap;html=1;rounded=0;" vertex="1" parent="1">
          <mxGeometry x="680" y="310" width="120" height="60" as="geometry" />
        </mxCell>
        <mxCell id="Lxu_41CDQCfV6g_MxfKU-42" value="" style="edgeStyle=orthogonalEdgeStyle;rounded=0;orthogonalLoop=1;jettySize=auto;html=1;" edge="1" parent="1" source="Lxu_41CDQCfV6g_MxfKU-40" target="Lxu_41CDQCfV6g_MxfKU-41">
          <mxGeometry relative="1" as="geometry" />
        </mxCell>
        <mxCell id="Lxu_41CDQCfV6g_MxfKU-40" value="Банк" style="rounded=0;whiteSpace=wrap;html=1;" vertex="1" parent="1">
          <mxGeometry x="10" y="380" width="120" height="60" as="geometry" />
        </mxCell>
        <mxCell id="Lxu_41CDQCfV6g_MxfKU-44" value="" style="edgeStyle=orthogonalEdgeStyle;rounded=0;orthogonalLoop=1;jettySize=auto;html=1;" edge="1" parent="1" source="Lxu_41CDQCfV6g_MxfKU-41" target="Lxu_41CDQCfV6g_MxfKU-43">
          <mxGeometry relative="1" as="geometry" />
        </mxCell>
        <mxCell id="Lxu_41CDQCfV6g_MxfKU-41" value="Информация об оплате" style="shape=document;whiteSpace=wrap;html=1;boundedLbl=1;rounded=0;" vertex="1" parent="1">
          <mxGeometry x="180" y="380" width="120" height="60" as="geometry" />
        </mxCell>
        <mxCell id="Lxu_41CDQCfV6g_MxfKU-46" value="" style="edgeStyle=orthogonalEdgeStyle;rounded=0;orthogonalLoop=1;jettySize=auto;html=1;" edge="1" parent="1" source="Lxu_41CDQCfV6g_MxfKU-43" target="Lxu_41CDQCfV6g_MxfKU-45">
          <mxGeometry relative="1" as="geometry" />
        </mxCell>
        <mxCell id="Lxu_41CDQCfV6g_MxfKU-43" value="5. Предоставление логина и пароля временного аккаунта" style="whiteSpace=wrap;html=1;rounded=0;" vertex="1" parent="1">
          <mxGeometry x="350" y="380" width="120" height="60" as="geometry" />
        </mxCell>
        <mxCell id="Lxu_41CDQCfV6g_MxfKU-50" value="" style="edgeStyle=orthogonalEdgeStyle;rounded=0;orthogonalLoop=1;jettySize=auto;html=1;" edge="1" parent="1" source="Lxu_41CDQCfV6g_MxfKU-45" target="Lxu_41CDQCfV6g_MxfKU-49">
          <mxGeometry relative="1" as="geometry" />
        </mxCell>
        <mxCell id="Lxu_41CDQCfV6g_MxfKU-45" value="Логин и пароль временного аккаунта" style="shape=document;whiteSpace=wrap;html=1;boundedLbl=1;rounded=0;" vertex="1" parent="1">
          <mxGeometry x="520" y="380" width="120" height="60" as="geometry" />
        </mxCell>
        <mxCell id="Lxu_41CDQCfV6g_MxfKU-49" value="Клиент" style="whiteSpace=wrap;html=1;rounded=0;" vertex="1" parent="1">
          <mxGeometry x="680" y="380" width="120" height="60" as="geometry" />
        </mxCell>
      </root>
    </mxGraphModel>
  </diagram>
</mxfile>
